<svg width="100" height="60" viewBox="0 0 131 86" fill="none" xmlns="http://www.w3.org/2000/svg">
<path d="M9.40102 36.276H12.7662V39.9167C13.0417 39.2082 13.7174 38.3489 14.7932 37.3386C15.869 36.3153 17.1089 35.8036 18.5127 35.8036C18.5783 35.8036 18.6898 35.8102 18.8472 35.8233C19.0047 35.8364 19.2736 35.8627 19.6541 35.902V39.6412C19.4442 39.6018 19.2474 39.5756 19.0637 39.5624C18.8931 39.5493 18.7029 39.5428 18.493 39.5428C16.7087 39.5428 15.3377 40.12 14.38 41.2746C13.4222 42.416 12.9433 43.7345 12.9433 45.2302V57.3528H9.40102V36.276Z" fill="white"/>
<path d="M23.7832 35.3756H27.4875V56.9534H23.7832V35.3756ZM23.7832 27.2181H27.4875V31.3474H23.7832V27.2181Z" fill="white"/>
<path d="M40.4529 34.8897C42.1532 34.8897 43.6376 35.3081 44.9061 36.1447C45.5943 36.6171 46.296 37.3053 47.0112 38.2094V35.4768H50.3714V55.1923C50.3714 57.9452 49.9665 60.1178 49.1569 61.7102C47.6455 64.652 44.7914 66.1229 40.5945 66.1229C38.26 66.1229 36.2965 65.5966 34.7042 64.5441C33.1118 63.505 32.2212 61.8721 32.0322 59.6455H35.7365C35.9119 60.6171 36.2628 61.3661 36.7891 61.8924C37.6122 62.7021 38.9077 63.1069 40.6755 63.1069C43.4689 63.1069 45.2974 62.1218 46.1611 60.1516C46.6739 58.991 46.91 56.9196 46.8695 53.9373C46.1408 55.0439 45.2637 55.8671 44.2381 56.4068C43.2125 56.9466 41.8563 57.2165 40.1695 57.2165C37.8214 57.2165 35.7635 56.3866 33.9957 54.7268C32.2414 53.0534 31.3643 50.2938 31.3643 46.4478C31.3643 42.8178 32.2482 39.9839 34.0159 37.9463C35.7972 35.9086 37.9429 34.8897 40.4529 34.8897ZM47.0112 46.0228C47.0112 43.3373 46.4579 41.3469 45.3514 40.0514C44.2448 38.7559 42.8346 38.1082 41.1208 38.1082C38.5569 38.1082 36.8026 39.3092 35.858 41.7113C35.3587 42.9932 35.109 44.6733 35.109 46.7515C35.109 49.194 35.6016 51.0562 36.5867 52.3382C37.5853 53.6067 38.9212 54.241 40.5945 54.241C43.2125 54.241 45.0545 53.0602 46.1206 50.6986C46.7143 49.3627 47.0112 47.804 47.0112 46.0228Z" fill="white"/>
<path d="M107.301 27.2181H120.681C123.326 27.2181 125.458 27.967 127.078 29.4649C128.697 30.9493 129.507 33.041 129.507 35.7399C129.507 38.061 128.785 40.0852 127.341 41.8125C125.897 43.5263 123.677 44.3832 120.681 44.3832H111.33V56.9534H107.301V27.2181ZM125.438 35.7601C125.438 33.574 124.629 32.0896 123.009 31.3069C122.119 30.8886 120.897 30.6794 119.345 30.6794H111.33V40.9825H119.345C121.154 40.9825 122.618 40.5979 123.738 39.8288C124.871 39.0596 125.438 37.7034 125.438 35.7601Z" fill="white"/>
<path d="M83.0354 14.7957C82.2948 14.0452 81.086 14.0371 80.3355 14.7777L68.1054 26.8463C67.3549 27.5868 67.3469 28.7956 68.0874 29.5461C68.828 30.2966 70.0368 30.3047 70.7873 29.5641L81.6585 18.8365L92.3861 29.7077C93.1267 30.4582 94.3355 30.4663 95.086 29.7257C95.8365 28.9851 95.8445 27.7763 95.1039 27.0258L83.0354 14.7957ZM83.4928 30.0991L83.5856 16.1493L79.7674 16.1239L79.6746 30.0737L83.4928 30.0991Z" fill="#00FF85"/>
<path fill-rule="evenodd" clip-rule="evenodd" d="M97.9382 38.7898V46.3604C97.9382 48.3907 97.6254 50.0061 96.9997 51.2064C95.8376 53.4155 93.6413 54.5201 90.4106 54.5201C87.7162 54.5201 85.8008 53.4985 84.6643 51.4554C83.8981 50.1018 83.515 48.4035 83.515 46.3604V28.9683H79.6459V44.7706C79.6459 48.2311 80.112 50.8935 81.0441 52.7579C82.7425 56.1546 85.9668 57.8529 90.7171 57.8529C95.4673 57.8529 98.698 56.1546 100.409 52.7579C101.341 50.8935 101.807 48.2311 101.807 44.7706V38.7898H97.9382Z" fill="#00FF85"/>
<circle cx="127.149" cy="53.8344" r="3.63643" fill="#00FF85"/>
<path d="M64.8728 34.7885C66.4111 34.7885 67.9023 35.1529 69.3462 35.8816C70.7901 36.5968 71.8899 37.5279 72.6456 38.675C73.3743 39.768 73.8601 41.0433 74.103 42.5007C74.319 43.4993 74.4269 45.0916 74.4269 47.2778H58.5371C58.6045 49.4774 59.1241 51.2452 60.0957 52.5811C61.0673 53.9036 62.5719 54.5648 64.6096 54.5648C66.5123 54.5648 68.0305 53.9373 69.164 52.6823C69.8118 51.9536 70.2706 51.1102 70.5405 50.1521H74.1233C74.0288 50.9483 73.7117 51.8389 73.1719 52.824C72.6456 53.7956 72.0519 54.5918 71.3906 55.2126C70.2841 56.2921 68.9144 57.0208 67.2815 57.3987C66.4044 57.6146 65.4125 57.7226 64.306 57.7226C61.6071 57.7226 59.3197 56.7442 57.444 54.7875C55.5683 52.8173 54.6304 50.0644 54.6304 46.5288C54.6304 43.0472 55.575 40.2201 57.4642 38.0475C59.3535 35.8748 61.823 34.7885 64.8728 34.7885ZM70.6822 44.3832C70.5337 42.8043 70.1896 41.5426 69.6498 40.5979C68.6512 38.8437 66.9847 37.9665 64.6501 37.9665C62.9768 37.9665 61.5733 38.5738 60.4398 39.7883C59.3062 40.9893 58.7057 42.5209 58.6383 44.3832H70.6822Z" fill="white"/>
</svg>
